Coordinates
version=1
nRows=36
nColumns=38
inDegrees=no

Units are S.I. units (second, meters, Newtons, ...)
If the header above contains a line with 'inDegrees', this indicates whether rotational values are in degrees (yes) or radians (no).

endheader
time	pelvis_tilt	pelvis_list	pelvis_rotation	pelvis_tx	pelvis_ty	pelvis_tz	hip_flexion_r	hip_adduction_r	hip_rotation_r	knee_angle_r	ankle_angle_r	subtalar_angle_r	mtp_angle_r	hip_flexion_l	hip_adduction_l	hip_rotation_l	knee_angle_l	ankle_angle_l	subtalar_angle_l	mtp_angle_l	lumbar_extension	lumbar_bending	lumbar_rotation	arm_flex_r	arm_add_r	arm_rot_r	elbow_flex_r	pro_sup_r	wrist_flex_r	wrist_dev_r	arm_flex_l	arm_add_l	arm_rot_l	elbow_flex_l	pro_sup_l	wrist_flex_l	wrist_dev_l
0	-0.137332	-0.0894187	-3.06535	-0.130425	0.930786	-0.0264615	-0.0563069	-0.124544	-0.134932	1.28588	-0.201797	0	0	0.356006	0.136452	-0.0292421	0.746875	0.227941	0	0	-0.446435	-0.127652	0.169843	0.377233	-0.542957	0.742294	1.88107	1.35191	0	0	-0.0581618	-0.522107	0.681172	1.95125	1.2911	0	0
0.00999069	-0.141882	-0.0901106	-3.06258	-0.127696	0.927643	-0.0266988	-0.0209866	-0.125073	-0.129587	1.32003	-0.177867	0	0	0.339099	0.135004	-0.0275377	0.768368	0.260676	0	0	-0.458239	-0.125542	0.128497	0.364844	-0.530761	0.755176	1.85542	1.34677	0	0	-0.027893	-0.516501	0.675734	1.96048	1.30184	0	0
0.0199814	-0.146184	-0.090618	-3.05996	-0.124979	0.924564	-0.0269265	0.0145969	-0.125462	-0.124186	1.35361	-0.154008	0	0	0.322157	0.133403	-0.0257852	0.789296	0.293165	0	0	-0.469606	-0.123288	0.088078	0.35138	-0.518966	0.766966	1.83043	1.34177	0	0	0.00315459	-0.510806	0.671135	1.9695	1.31236	0	0
0.0299721	-0.150004	-0.0906553	-3.05769	-0.122293	0.921663	-0.0271301	0.0506295	-0.125482	-0.118723	1.3856	-0.130345	0	0	0.304988	0.131408	-0.0238732	0.808805	0.325009	0	0	-0.480023	-0.120724	0.0506041	0.334463	-0.508397	0.775101	1.80752	1.33726	0	0	0.0369452	-0.504798	0.669471	1.97775	1.322	0	0
0.0399628	-0.153191	-0.0899835	-3.05588	-0.119659	0.919072	-0.0273035	0.0870854	-0.124929	-0.113335	1.41483	-0.106992	0	0	0.287267	0.128812	-0.0216513	0.825951	0.355711	0	0	-0.489077	-0.117665	0.0174632	0.312481	-0.499535	0.777838	1.78776	1.33344	0	0	0.0746294	-0.498222	0.671958	1.98493	1.33034	0	0
0.0499534	-0.155696	-0.0884506	-3.05453	-0.117103	0.91693	-0.0274465	0.123713	-0.123679	-0.10829	1.44003	-0.0840455	0	0	0.268594	0.125476	-0.0189597	0.839832	0.384695	0	0	-0.496534	-0.113956	-0.0105204	0.284469	-0.492543	0.77411	1.77195	1.33035	0	0	0.116703	-0.49081	0.679135	1.99093	1.33711	0	0
0.0599441	-0.157533	-0.0859912	-3.05358	-0.114649	0.91537	-0.027562	0.160106	-0.121689	-0.103947	1.45998	-0.0615945	0	0	0.248579	0.121327	-0.015656	0.849663	0.411318	0	0	-0.502314	-0.109492	-0.0329615	0.249958	-0.487318	0.763353	1.76056	1.32803	0	0	0.163183	-0.482289	0.691074	1.99574	1.34214	0	0
0.0699348	-0.158721	-0.082604	-3.05286	-0.112314	0.914503	-0.0276558	0.195796	-0.118976	-0.100695	1.47359	-0.0397405	0	0	0.226934	0.116339	-0.0116264	0.854824	0.434891	0	0	-0.50643	-0.104207	-0.0498593	0.208924	-0.483522	0.745463	1.75373	1.32653	0	0	0.213679	-0.472409	0.707468	1.99939	1.3454	0	0
0.0799255	-0.159249	-0.0783097	-3.05217	-0.110112	0.914414	-0.0277327	0.230326	-0.11558	-0.0989031	1.47993	-0.0186053	0	0	0.203528	0.110507	-0.00678182	0.854907	0.45471	0	0	-0.508947	-0.0980729	-0.0612166	0.161367	-0.480756	0.7203	1.75143	1.32602	0	0	0.267808	-0.460896	0.728095	2.00179	1.34686	0	0
0.0899162	-0.159089	-0.0731356	-3.05133	-0.108056	0.915161	-0.0277947	0.263263	-0.111542	-0.0988607	1.47824	0.00167304	0	0	0.178381	0.103841	-0.00105959	0.849722	0.470075	0	0	-0.509954	-0.0910871	-0.0670591	0.107386	-0.478608	0.687804	1.75347	1.32677	0	0	0.325158	-0.447494	0.75278	2.0028	1.3465	0	0
0.0999069	-0.158199	-0.0671199	-3.05023	-0.106159	0.916776	-0.0278395	0.294203	-0.106906	-0.100735	1.46793	0.0209525	0	0	0.15164	0.0963774	0.00555587	0.839286	0.480299	0	0	-0.509536	-0.0832731	-0.0674923	0.047285	-0.476719	0.648138	1.75945	1.32904	0	0	0.385222	-0.432018	0.781315	2.0022	1.34431	0	0
0.109898	-0.156517	-0.0603105	-3.04882	-0.104434	0.919265	-0.0278606	0.322806	-0.101706	-0.104542	1.44858	0.0390972	0	0	0.123577	0.0881739	0.0129996	0.823808	0.484721	0	0	-0.507735	-0.0746966	-0.0627759	-0.0183148	-0.474843	0.60183	1.76879	1.33305	0	0	0.447341	-0.41444	0.813389	1.99984	1.34033	0	0
0.119888	-0.153991	-0.0527353	-3.0472	-0.102892	0.922608	-0.0278437	0.348782	-0.0959315	-0.110132	1.41996	0.056002	0	0	0.0945565	0.0792732	0.021092	0.803699	0.482762	0	0	-0.504574	-0.0654608	-0.0531531	-0.0886765	-0.472984	0.549526	1.78086	1.339	0	0	0.510931	-0.394854	0.848805	1.99559	1.33461	0	0
0.129879	-0.150369	-0.0445731	-3.04545	-0.101563	0.92675	-0.027799	0.372104	-0.0896761	-0.117197	1.38204	0.0716218	0	0	0.0651965	0.069862	0.0295662	0.779484	0.473895	0	0	-0.499786	-0.0555743	-0.0410496	-0.160537	-0.470973	0.49488	1.79415	1.34625	0	0	0.572963	-0.374477	0.884786	1.9906	1.328	0	0
0.13987	-0.14536	-0.0360954	-3.04371	-0.100475	0.931607	-0.0277506	0.392862	-0.0830859	-0.125311	1.33499	0.0859521	0	0	0.0362049	0.0602168	0.0381068	0.751824	0.45772	0	0	-0.493037	-0.0450777	-0.0294098	-0.230112	-0.468889	0.442115	1.80713	1.35392	0	0	0.630105	-0.355061	0.918185	1.98645	1.32155	0	0
0.14986	-0.138778	-0.0275847	-3.04212	-0.0996505	0.937069	-0.0277232	0.411122	-0.0762856	-0.133969	1.27918	0.0990256	0	0	0.00822303	0.0506248	0.0463757	0.721507	0.434051	0	0	-0.4841	-0.0341338	-0.0203049	-0.294721	-0.466882	0.394146	1.81873	1.36128	0	0	0.680111	-0.337932	0.946976	1.98424	1.31593	0	0
0.159851	-0.130562	-0.0192945	-3.04081	-0.0991028	0.943009	-0.0277381	0.426916	-0.0693525	-0.142623	1.21519	0.110911	0	0	-0.0182129	0.0413432	0.0540365	0.68942	0.402965	0	0	-0.4729	-0.0230054	-0.0149017	-0.352785	-0.465095	0.35261	1.8283	1.36772	0	0	0.721794	-0.323887	0.97021	1.98458	1.31149	0	0
0.169842	-0.120779	-0.0114469	-3.03991	-0.0988326	0.949285	-0.0278143	0.440243	-0.0623253	-0.150721	1.14377	0.121716	0	0	-0.0426866	0.0325907	0.0607807	0.656507	0.364825	0	0	-0.459526	-0.0120146	-0.0136016	-0.40365	-0.463612	0.318088	1.83557	1.3728	0	0	0.754858	-0.313236	0.987791	1.98763	1.30826	0	0
0.179832	-0.109579	-0.00423609	-3.03948	-0.0988317	0.955746	-0.0279702	0.451122	-0.0552263	-0.157732	1.06593	0.131578	0	0	-0.0648695	0.0245508	0.066357	0.623749	0.320273	0	0	-0.444193	-0.00151282	-0.0163126	-0.447277	-0.462455	0.290471	1.84055	1.37626	0	0	0.779616	-0.30597	1.00018	1.99331	1.30615	0	0
0.189823	-0.0972233	0.0021479	-3.03955	-0.0990807	0.962242	-0.0282269	0.45957	-0.048098	-0.163171	0.982859	0.140669	0	0	-0.0845572	0.0173888	0.0705944	0.592135	0.270233	0	0	-0.427249	0.00814209	-0.0224096	-0.484259	-0.461473	0.268953	1.84346	1.37806	0	0	0.796945	-0.301715	1.00832	2.00116	1.3049	0	0
0.199814	-0.0840372	0.00751025	-3.04009	-0.0995514	0.968624	-0.0286087	0.465649	-0.0410335	-0.166628	0.896044	0.14917	0	0	-0.101638	0.0112618	0.0734138	0.562644	0.215885	0	0	-0.409086	0.0166292	-0.0307411	-0.515787	-0.460262	0.252071	1.84476	1.37838	0	0	0.808172	-0.299733	1.0136	2.01032	1.30418	0	0
0.209804	-0.0703157	0.0117134	-3.04107	-0.100215	0.974743	-0.0291327	0.469557	-0.0341472	-0.16782	0.807175	0.157244	0	0	-0.116	0.00627705	0.0748005	0.536229	0.158631	0	0	-0.390062	0.0237297	-0.040298	-0.542917	-0.458538	0.238539	1.84492	1.37742	0	0	0.814494	-0.299393	1.01718	2.02004	1.30377	0	0
0.219795	-0.0563262	0.0146751	-3.04242	-0.101039	0.98046	-0.0298082	0.471623	-0.0275837	-0.166619	0.718159	0.165026	0	0	-0.127538	0.00248879	0.0747782	0.513806	0.100035	0	0	-0.370507	0.0293209	-0.0502425	-0.566498	-0.456145	0.227308	1.8444	1.37539	0	0	0.816927	-0.300176	1.01998	2.02967	1.30359	0	0
0.229786	-0.0423167	0.0163708	-3.04409	-0.101987	0.985643	-0.0306365	0.472279	-0.0215108	-0.163083	0.631071	0.172622	0	0	-0.136175	-0.000110055	0.0733796	0.496225	0.041733	0	0	-0.350738	0.0333731	-0.0599104	-0.587153	-0.453055	0.217584	1.84361	1.37255	0	0	0.816292	-0.301683	1.02266	2.0387	1.30365	0	0
0.239777	-0.0285297	0.0168395	-3.04605	-0.103021	0.990173	-0.0316111	0.472021	-0.0160979	-0.157478	0.54809	0.18011	0	0	-0.141878	-0.0015998	0.0706247	0.484247	-0.0146667	0	0	-0.331076	0.0359487	-0.0687935	-0.605277	-0.449356	0.208816	1.84291	1.36918	0	0	0.813228	-0.30361	1.02561	2.04674	1.30396	0	0
0.249767	-0.0152235	0.0161926	-3.04827	-0.104096	0.993947	-0.0327189	0.471341	-0.0114783	-0.150272	0.471374	0.187534	0	0	-0.144683	-0.00214809	0.0665049	0.478516	-0.0676927	0	0	-0.311872	0.0372048	-0.0765017	-0.621071	-0.445238	0.200656	1.84262	1.36565	0	0	0.808222	-0.305728	1.02901	2.05348	1.30459	0	0
0.259758	-0.00267573	0.0146153	-3.05074	-0.105166	0.99688	-0.0339435	0.470664	-0.00770868	-0.142071	0.402924	0.194877	0	0	-0.14471	-0.00201482	0.06098	0.479526	-0.116111	0	0	-0.293506	0.0373849	-0.0827293	-0.634581	-0.44096	0.192917	1.84295	1.3623	0	0	0.801644	-0.307855	1.0329	2.05866	1.30561	0	0
0.269749	0.00880208	0.0123599	-3.05349	-0.106187	0.998909	-0.0352681	0.470283	-0.00473795	-0.13353	0.344435	0.202039	0	0	-0.142183	-0.00154493	0.0539931	0.487587	-0.159006	0	0	-0.276403	0.0368022	-0.0872165	-0.645746	-0.436815	0.185524	1.84409	1.35942	0	0	0.793789	-0.309851	1.03725	2.06208	1.30704	0	0
0.279739	0.0188463	0.00972663	-3.05654	-0.107117	0.999995	-0.0366787	0.470286	-0.00240125	-0.125241	0.297174	0.208811	0	0	-0.137458	-0.00114565	0.0454937	0.502797	-0.195824	0	0	-0.261054	0.0358116	-0.0897144	-0.654446	-0.433095	0.178455	1.84615	1.3572	0	0	0.784919	-0.311593	1.04194	2.06357	1.30883	0	0
0.28973	0.0270379	0.00703521	-3.05995	-0.107915	1.00012	-0.0381641	0.470534	-0.000446356	-0.11767	0.261898	0.214867	0	0	-0.131022	-0.00124817	0.0354623	0.525052	-0.22634	0	0	-0.24802	0.0347768	-0.0899667	-0.660547	-0.430053	0.171693	1.8492	1.35567	0	0	0.7753	-0.312972	1.04691	2.06296	1.31081	0	0
0.299721	0.0329253	0.00459778	-3.06379	-0.108546	0.999301	-0.039714	0.470682	0.00142293	-0.11113	0.23882	0.219763	0	0	-0.123459	-0.00226496	0.0239348	0.55407	-0.250573	0	0	-0.237904	0.0340428	-0.0877138	-0.663932	-0.42789	0.165196	1.85328	1.35479	0	0	0.765211	-0.313882	1.05209	2.0601	1.31278	0	0
0.309711	0.036069	0.00270254	-3.0681	-0.108977	0.997562	-0.0413171	0.47025	0.00350641	-0.10582	0.227652	0.222981	0	0	-0.115375	-0.00455681	0.0110259	0.589434	-0.268664	0	0	-0.231299	0.0339196	-0.0827096	-0.66452	-0.426756	0.158882	1.85842	1.3544	0	0	0.754932	-0.314223	1.05747	2.05484	1.31453	0	0
0.319702	0.0361004	0.00161225	-3.0729	-0.109179	0.994953	-0.0429588	0.468747	0.00607736	-0.101895	0.227709	0.224007	0	0	-0.107319	-0.00841606	-0.00304856	0.630631	-0.280793	0	0	-0.228714	0.0346827	-0.0747485	-0.662266	-0.426762	0.152632	1.86461	1.35433	0	0	0.744712	-0.313907	1.06306	2.04704	1.3158	0	0
0.329693	0.0327794	0.0015669	-3.07818	-0.109124	0.991538	-0.0446199	0.465779	0.0093609	-0.0995341	0.238036	0.222432	0	0	-0.0996974	-0.0140554	-0.0179529	0.677068	-0.287151	0	0	-0.230503	0.0365781	-0.0636958	-0.657157	-0.427993	0.146302	1.87183	1.35437	0	0	0.734736	-0.312861	1.06885	2.03658	1.31643	0	0
0.339683	0.026038	0.0027761	-3.08386	-0.108787	0.987389	-0.0462757	0.461145	0.0135117	-0.0989568	0.257552	0.218053	0	0	-0.0927169	-0.021589	-0.0332248	0.728082	-0.287993	0	0	-0.236814	0.0398178	-0.0495182	-0.649198	-0.430528	0.139748	1.88005	1.35436	0	0	0.725091	-0.311041	1.07481	2.02334	1.31635	0	0
0.349674	0.016	0.00539167	-3.08984	-0.108148	0.982589	-0.0478963	0.454881	0.018587	-0.100366	0.285167	0.210996	0	0	-0.0863552	-0.0309997	-0.0482868	0.782945	-0.283702	0	0	-0.247557	0.0445547	-0.0323155	-0.638384	-0.434453	0.132868	1.88921	1.35417	0	0	0.715744	-0.30845	1.08085	2.00726	1.31563	0	0
